<svg id="Layer_1" enable-background="new 0 0 511.997 511.997" height="512" viewBox="0 0 511.997 511.997" width="512" xmlns="http://www.w3.org/2000/svg"><g><g clip-rule="evenodd" fill-rule="evenodd"><path d="m360.654 109.476 98.519-98.519c-51.862-7.065-127.688 25.96-161.613 59.886l-154.038 154.04 77.909-6.111 68.246-68.246 12.031-12.031c12.593-12.594 36.734-24.94 58.946-29.019z" fill="#cbe558"/><path d="m397.478 113.96c-9.104-6.314-22.566-7.101-36.823-4.483-22.213 4.079-46.354 16.424-58.947 29.018l-12.031 12.031 71.796 71.796 12.031-12.031c20.677-20.677 40.685-72.481 24.534-95.769z" fill="#6d91ac"/><path d="m361.473 222.321-71.796-71.796-68.246 68.246-90.003 90.002 71.796 71.797 90.003-90.003z" fill="#fff"/><path d="m131.428 308.773 90.003-90.002-77.909 6.112-47.992 47.992z" fill="#a7bdcd"/><path d="m131.428 308.773-35.898-35.898-40.002 40.001 35.899 35.899 71.796 71.796 35.898 35.898 40.002-40.001-35.899-35.898z" fill="#6d91ac"/><path d="m163.223 420.571-71.796-71.797-22.302 34.269 59.829 59.83z" fill="#a7bdcd"/><path d="m128.954 442.873-59.829-59.83c-51.736 13.863-59.125 63.842-59.124 118.954 55.112 0 105.091-7.389 118.953-59.124z" fill="#ffc144"/><path d="m398.038 114.52c6.518 9.399 7.147 23.442 4.219 38.21l98.913-98.913c-1.477-11.753-4.977-22.311-10.947-30.921l-1.122-1.122c-8.366-5.802-18.572-9.27-29.927-10.817l-98.519 98.518c14.257-2.618 27.719-1.83 36.823 4.483z" fill="#fff"/><path d="m501.17 53.817-98.913 98.913c-4.327 21.823-16.421 45.228-28.753 57.56l-12.031 12.031-68.246 68.247-6.112 77.907 154.038-154.039c33.709-33.71 66.53-108.787 60.017-160.619z" fill="#cbe558"/><path d="m287.115 368.475 6.112-77.908-90.003 90.003 35.899 35.898z" fill="#a7bdcd"/></g><g><path d="m498.439 17.198c-.34-.491-.724-.95-1.146-1.373l-1.122-1.122c-.422-.422-.882-.806-1.373-1.146-31.935-22.147-80.32-12.29-106.317-4.442-38.287 11.556-75.835 32.5-97.993 54.657l-11.964 11.964c-3.905 3.905-3.905 10.237 0 14.142s10.237 3.905 14.142 0l11.964-11.964c19.664-19.664 54.845-39.153 89.629-49.652 14.853-4.483 28.818-7.127 41.426-7.96l-79.975 79.976c-3.254.694-6.58 1.536-9.987 2.565-19.885 6.002-39.46 16.953-51.087 28.579l-77.667 77.667-47.216 3.704 59.275-59.275c3.905-3.905 3.905-10.237 0-14.143s-10.237-3.905-14.143 0l-166.428 166.43c-1.875 1.875-2.929 4.419-2.929 7.071s1.054 5.196 2.929 7.071l30.167 30.167-15.874 24.391c-24.681 7.695-42.139 24.11-51.892 48.882-9.624 24.44-10.858 54.848-10.858 78.61 0 5.523 4.477 10 10 10 23.761 0 54.169-1.234 78.609-10.856 24.772-9.753 41.188-27.212 48.883-51.893l24.391-15.874 30.167 30.167c1.875 1.875 4.419 2.929 7.071 2.929s5.196-1.054 7.071-2.929l242.031-242.033c22.158-22.158 43.101-59.707 54.657-97.993 7.848-25.999 17.705-74.382-4.441-106.317zm-7.949 33.156-77.257 77.257c-1.06-7.246-3.375-13.597-6.976-18.79-.341-.492-.726-.952-1.149-1.375l-.561-.561c-.421-.421-.879-.804-1.369-1.143-4.958-3.438-10.962-5.72-17.803-6.842l77.205-77.206c7.74 1.533 14.479 4.107 19.988 7.734 3.774 5.733 6.415 12.789 7.922 20.926zm-99.909 71.064c10.326 17.878-4.85 62.502-24.148 81.8l-4.96 4.96-57.654-57.654 4.959-4.959c19.299-19.298 63.924-34.472 81.803-24.147zm-187.357 245.009-57.653-57.653 144.106-144.107 57.654 57.654zm-8.024-135.568-63.772 63.772-21.756-21.756 38.311-38.312zm-175.099 261.038c1.024-49.528 10.359-84.957 46.223-97.511l18.573 18.573-19.467 19.466c-3.906 3.905-3.906 10.237 0 14.142 1.953 1.953 4.512 2.929 7.071 2.929s5.119-.977 7.071-2.929l19.468-19.467 18.573 18.573c-12.556 35.864-47.985 45.199-97.512 46.224zm110.192-61.827-48.366-48.366 11.152-17.135 54.349 54.349zm68.829 12.257-129.452-129.45 25.859-25.859 129.451 129.45zm40.001-40.002-21.756-21.756 63.772-63.772-3.705 47.216zm194.959-194.96-134.878 134.879 3.704-47.216 77.667-77.667c11.626-11.626 22.578-31.202 28.58-51.087.878-2.91 1.629-5.765 2.264-8.564l80.193-80.193c-.918 12.29-3.538 25.839-7.878 40.218-10.499 34.784-29.989 69.965-49.652 89.63z"/><path d="m290.546 222.124-.005-.005c-3.714-4.087-10.037-4.385-14.124-.67s-4.386 10.042-.67 14.128c1.974 2.171 4.683 3.273 7.402 3.273 2.4 0 4.808-.859 6.724-2.601 4.087-3.714 4.389-10.038.673-14.125z"/><path d="m254.856 257.13c-3.905-3.905-10.234-3.903-14.14.003-3.905 3.905-3.903 10.24.002 14.145 1.953 1.953 4.512 2.929 7.071 2.929s5.119-.976 7.071-2.929c3.905-3.905 3.905-10.237 0-14.143z"/><path d="m219.5 292.487c-3.905-3.905-10.234-3.903-14.14.003-3.905 3.905-3.903 10.24.002 14.145 1.953 1.953 4.512 2.929 7.071 2.929s5.119-.976 7.071-2.929c3.905-3.905 3.905-10.237 0-14.143z"/><path d="m253.778 124.626c5.523 0 10-4.477 10-10s-4.477-10-10-10h-.007c-5.523 0-9.996 4.477-9.996 10s4.48 10 10.003 10z"/></g></g></svg>